<?xml version="1.0" standalone="no"?>
<!DOCTYPE svg PUBLIC "-//W3C//DTD SVG 20010904//EN"
 "http://www.w3.org/TR/2001/REC-SVG-20010904/DTD/svg10.dtd">
<svg version="1.0" xmlns="http://www.w3.org/2000/svg"
 width="512.000000pt" height="512.000000pt" viewBox="0 0 512.000000 512.000000"
 preserveAspectRatio="xMidYMid meet">

<g transform="translate(0.000000,512.000000) scale(0.100000,-0.100000)"
fill="#000000" stroke="none">
<path d="M2878 3437 c-411 -722 -750 -1320 -753 -1329 -4 -11 159 -312 477
-877 l483 -861 470 3 c439 2 470 3 469 19 -1 10 -212 396 -469 859 -401 722
-465 845 -457 864 5 12 340 601 742 1310 403 708 733 1295 734 1304 1 14 -46
16 -474 19 l-475 2 -747 -1313z"/>
<path d="M744 3935 c-4 -9 101 -209 256 -492 171 -312 260 -483 258 -497 -3
-12 -165 -290 -361 -620 -284 -476 -355 -601 -346 -612 10 -12 90 -14 478 -12
l466 3 352 585 c194 322 362 603 374 625 l21 40 -283 498 -283 497 -463 0
c-405 0 -464 -2 -469 -15z"/>
</g>
</svg>
